<?xml version="1.0" encoding="UTF-8"?>
<svg version="1.1" xmlns="http://www.w3.org/2000/svg" width="225" height="225">
<path d="M0 0 C74.25 0 148.5 0 225 0 C225 74.25 225 148.5 225 225 C150.75 225 76.5 225 0 225 C0 150.75 0 76.5 0 0 Z " fill="#A0C2FE" transform="translate(0,0)"/>
<path d="M0 0 C4.56135334 2.94123851 8.78912315 6.14237729 13 9.5625 C14.33161841 10.63592901 15.66365927 11.70883413 16.99609375 12.78125 C17.66495605 13.32007813 18.33381836 13.85890625 19.02294922 14.4140625 C22.01965728 16.81794193 25.0390322 19.19241959 28.0625 21.5625 C28.92415771 22.23865356 28.92415771 22.23865356 29.80322266 22.9284668 C32.67491784 25.18076885 35.54948126 27.42936389 38.42578125 29.67578125 C44.69073531 34.57538778 50.90247023 39.53142927 57.0625 44.5625 C61.84392621 48.4667889 66.65423148 52.31875117 71.5625 56.0625 C76.87761445 60.11773547 82.11019355 64.26453364 87.32202148 68.45141602 C92.30338362 72.45082851 97.31610173 76.40856967 102.34545898 80.34741211 C105.57866107 82.87986931 108.79766674 85.42860973 112 88 C110.65353997 91.08754345 109.26519425 92.88996654 106.6484375 94.99609375 C105.97031006 95.54789307 105.29218262 96.09969238 104.59350586 96.66821289 C103.86139893 97.25207764 103.12929199 97.83594238 102.375 98.4375 C101.61517822 99.05294678 100.85535645 99.66839355 100.07250977 100.30249023 C98.49196434 101.58188587 96.90900622 102.85830626 95.32373047 104.13183594 C92.50424252 106.39856443 89.69941786 108.68291521 86.89501953 110.96826172 C84.28466205 113.09418269 81.66932157 115.21392973 79.05419922 117.33398438 C75.36730561 120.32416289 71.68390162 123.31863681 68 126.3125 C66.64584761 127.41277799 65.29168233 128.51304011 63.9375 129.61328125 C62.968125 130.40089844 61.99875 131.18851563 61 132 C57.92166559 128.23169409 55.20508778 124.36002678 52.5625 120.28125 C43.45821834 106.98899877 29.70796319 99.47353056 14.26171875 95.6953125 C1.48602279 93.31035326 -12.01569045 93.8615662 -24 99 C-25.0003125 99.40089844 -26.000625 99.80179687 -27.03125 100.21484375 C-41.15641026 106.49471526 -51.82573415 118.5123802 -59 132 C-65.52689744 127.23106347 -71.76620401 122.14331102 -78 117 C-79.7283491 115.58233601 -81.45752048 114.16567393 -83.1875 112.75 C-84.08210938 112.0178125 -84.97671875 111.285625 -85.8984375 110.53125 C-90.37042506 106.87749037 -94.85640412 103.24087026 -99.3425293 99.60449219 C-103.25297675 96.43167184 -107.13881686 93.23261845 -111 90 C-109.66779391 86.92694067 -108.37899234 85.23134039 -105.68359375 83.2578125 C-105.01038086 82.75612549 -104.33716797 82.25443848 -103.64355469 81.73754883 C-102.91555664 81.20540771 -102.18755859 80.6732666 -101.4375 80.125 C-95.24359783 75.50072199 -89.18794651 70.7613537 -83.25 65.8125 C-77.34168859 60.8999865 -71.35266859 56.14069802 -65.23828125 51.48828125 C-61.6345318 48.73586357 -58.09759221 45.90225329 -54.5625 43.0625 C-49.70660878 39.16272324 -44.83749724 35.28175369 -39.9375 31.4375 C-39.36249756 30.98624756 -38.78749512 30.53499512 -38.19506836 30.07006836 C-35.3238633 27.81835634 -32.44992789 25.57017465 -29.57421875 23.32421875 C-22.39567472 17.70994232 -15.28810747 12.01719324 -8.24072266 6.23876953 C-7.60054199 5.71524902 -6.96036133 5.19172852 -6.30078125 4.65234375 C-5.73528564 4.18820068 -5.16979004 3.72405762 -4.5871582 3.24584961 C-3.11373886 2.08928002 -1.55853877 1.03902584 0 0 Z " fill="#4184F3" transform="translate(112,0)"/>
<path d="M0 0 C36.96 0 73.92 0 112 0 C106.36961451 5.63038549 106.36961451 5.63038549 103.46875 7.98046875 C102.51053345 8.75886108 102.51053345 8.75886108 101.53295898 9.55297852 C100.86208252 10.09237061 100.19120605 10.6317627 99.5 11.1875 C98.79367432 11.75847412 98.08734863 12.32944824 97.35961914 12.91772461 C92.05897689 17.18700667 86.68448104 21.34813669 81.2734375 25.4765625 C77.66162927 28.24524954 74.11070679 31.08801701 70.5625 33.9375 C65.70654847 37.83720261 60.83749818 41.71824557 55.9375 45.5625 C55.36249756 46.01375244 54.78749512 46.46500488 54.19506836 46.92993164 C51.3238633 49.18164366 48.44992789 51.42982535 45.57421875 53.67578125 C39.30926429 58.57538809 33.09753601 63.53143594 26.9375 68.5625 C18.76812096 75.23307346 10.44745526 81.68452154 2 88 C3.54243474 92.28896369 6.79436987 94.43522686 10.3125 97.0625 C11.59147015 98.04084624 12.86877723 99.02136989 14.14453125 100.00390625 C14.79115723 100.50164551 15.4377832 100.99938477 16.10400391 101.51220703 C18.9713719 103.76223801 21.73681773 106.12405603 24.5 108.5 C29.58607512 112.85982727 34.8019766 117.02093203 40.09033203 121.13208008 C44.53503174 124.59980473 48.82928574 128.20490907 53 132 C52.72285156 132.88042969 52.44570313 133.76085937 52.16015625 134.66796875 C51.79792969 135.82941406 51.43570313 136.99085938 51.0625 138.1875 C50.70285156 139.33605469 50.34320313 140.48460937 49.97265625 141.66796875 C45.21012608 157.98298176 47.59018037 175.64369997 55.0625 190.75 C64.10651987 206.32581201 77.71993662 216.4982836 94.6875 222.25 C98.46382602 223.10501721 102.15031993 223.59477052 106 224 C106 224.33 106 224.66 106 225 C71.02 225 36.04 225 0 225 C0 150.75 0 76.5 0 0 Z " fill="#FEFEFE" transform="translate(0,0)"/>
<path d="M0 0 C36.96 0 73.92 0 112 0 C112 74.25 112 148.5 112 225 C77.68 225 43.36 225 8 225 C8 224.67 8 224.34 8 224 C8.92039062 223.79246094 9.84078125 223.58492187 10.7890625 223.37109375 C29.11408635 218.91113377 44.1080072 210.64167379 54.54296875 194.51953125 C63.51788781 178.9998991 67.01973569 161.10688701 62.61157227 143.54443359 C61.53335849 139.65250853 60.27667372 135.83002117 59 132 C64.22074167 127.25845684 69.54003121 122.70411082 75.0703125 118.328125 C78.71420815 115.43244259 82.32670114 112.49928307 85.9375 109.5625 C86.96883057 108.72404541 86.96883057 108.72404541 88.02099609 107.86865234 C92.91185168 103.89026115 97.79394597 99.90134512 102.66796875 95.90234375 C105.09941558 93.9189022 107.54680624 91.95645471 110 90 C108.67001432 86.01004296 106.04987368 84.44451229 102.8125 82 C101.52592172 81.00927033 100.23946671 80.01838056 98.953125 79.02734375 C98.29376953 78.52315918 97.63441406 78.01897461 96.95507812 77.49951172 C93.97179871 75.21138708 91.01681954 72.88781905 88.0625 70.5625 C87.48862549 70.11197266 86.91475098 69.66144531 86.32348633 69.19726562 C81.39370616 65.32303517 76.49957379 61.40507762 71.60791016 57.48291016 C67.40115324 54.11292851 63.17771474 50.7652785 58.9375 47.4375 C58.36241699 46.98616699 57.78733398 46.53483398 57.19482422 46.06982422 C54.32366687 43.81823665 51.4498378 41.57010429 48.57421875 39.32421875 C42.30926357 34.42461135 36.09756633 29.46852731 29.9375 24.4375 C23.05839739 18.82109599 16.06578566 13.37941815 9 8 C7.226716 6.64904408 5.45559372 5.29524175 3.6875 3.9375 C2.96949219 3.38964844 2.25148438 2.84179688 1.51171875 2.27734375 C1.01285156 1.85582031 0.51398438 1.43429687 0 1 C0 0.67 0 0.34 0 0 Z " fill="#FEFEFE" transform="translate(113,0)"/>
<path d="M0 0 C5.62158571 3.37295142 5.62158571 3.37295142 8.27734375 5.53125 C8.86588135 6.0063501 9.45441895 6.4814502 10.06079102 6.97094727 C10.98976196 7.72782837 10.98976196 7.72782837 11.9375 8.5 C13.27822256 9.58255567 14.61937818 10.6645752 15.9609375 11.74609375 C16.63608398 12.29120605 17.31123047 12.83631836 18.00683594 13.39794922 C21.00712907 15.80950281 24.0326519 18.18825315 27.0625 20.5625 C27.92403687 21.23853271 27.92403687 21.23853271 28.80297852 21.92822266 C31.67472147 24.18064908 34.54939117 26.42929353 37.42578125 28.67578125 C43.69073531 33.57538778 49.90247023 38.53142927 56.0625 43.5625 C60.84392621 47.4667889 65.65423148 51.31875117 70.5625 55.0625 C75.87761445 59.11773547 81.11019355 63.26453364 86.32202148 67.45141602 C91.30338362 71.45082851 96.31610173 75.40856967 101.34545898 79.34741211 C104.57866107 81.87986931 107.79766674 84.42860973 111 87 C109.65353997 90.08754345 108.26519425 91.88996654 105.6484375 93.99609375 C104.97031006 94.54789307 104.29218262 95.09969238 103.59350586 95.66821289 C102.86139893 96.25207764 102.12929199 96.83594238 101.375 97.4375 C100.61517822 98.05294678 99.85535645 98.66839355 99.07250977 99.30249023 C97.49196434 100.58188587 95.90900622 101.85830626 94.32373047 103.13183594 C91.50424252 105.39856443 88.69941786 107.68291521 85.89501953 109.96826172 C83.28466205 112.09418269 80.66932157 114.21392973 78.05419922 116.33398438 C74.36730561 119.32416289 70.68390162 122.31863681 67 125.3125 C65.64584761 126.41277799 64.29168233 127.51304011 62.9375 128.61328125 C61.968125 129.40089844 60.99875 130.18851563 60 131 C56.92166559 127.23169409 54.20508778 123.36002678 51.5625 119.28125 C39.17767588 101.19940678 20.2426971 96.49837713 0 92 C0 61.64 0 31.28 0 0 Z " fill="#356AC3" transform="translate(113,1)"/>
<path d="M0 0 C8.89905758 6.82549077 15.13203698 15.04141772 20.12890625 25.03515625 C-18.81109375 25.03515625 -57.75109375 25.03515625 -97.87109375 25.03515625 C-93.2975143 11.31441789 -81.36691607 0.81255141 -68.87109375 -5.96484375 C-46.45635524 -16.57537086 -20.41542106 -13.97136978 0 0 Z " fill="#75A6F9" transform="translate(151.87109375,105.96484375)"/>
</svg>
