<?xml version="1.0" encoding="UTF-8"?>
<svg version="1.1" xmlns="http://www.w3.org/2000/svg" width="500" height="500">
<path d="M0 0 C0.74788058 -0.00235223 1.49576116 -0.00470446 2.26630479 -0.00712797 C4.78642439 -0.01381465 7.30649238 -0.01335985 9.8266201 -0.01294994 C11.64610796 -0.01624877 13.46559508 -0.01997438 15.28508127 -0.02409142 C20.29623446 -0.03411734 25.30737567 -0.03782917 30.31853747 -0.04048073 C35.7188504 -0.04438201 41.11915382 -0.05396045 46.51946068 -0.0626936 C59.56652592 -0.08246264 72.61359195 -0.09252462 85.66066843 -0.10142139 C91.80292439 -0.10580343 97.94517949 -0.11117044 104.08743477 -0.11641026 C124.50235439 -0.13342271 144.91727347 -0.14791739 165.3321991 -0.155159 C170.63082569 -0.15706893 175.92945227 -0.15898925 181.22807884 -0.16094494 C182.54504546 -0.16142868 183.86201208 -0.16191242 185.21888678 -0.16241082 C206.55790989 -0.17071299 227.89686797 -0.19605301 249.23586841 -0.22852562 C271.13794481 -0.26158371 293.03999272 -0.27960662 314.94209421 -0.28280324 C327.24184033 -0.28496945 339.54150475 -0.29373449 351.84122658 -0.31926441 C362.31516184 -0.34095427 372.78899556 -0.34903023 383.26295073 -0.33929763 C388.60694996 -0.33474804 393.95073958 -0.33667763 399.29471016 -0.35605907 C404.18894542 -0.37365614 409.08281762 -0.37272098 413.97705655 -0.35716178 C415.74561366 -0.35478048 417.51419569 -0.35913633 419.28271468 -0.37099043 C432.24222984 -0.45246069 442.80142075 0.93509056 452.632864 10.13422108 C464.43026466 22.90289368 463.78318769 36.84453323 463.76657677 53.30836964 C463.76844646 55.06475027 463.77074779 56.82113049 463.77344209 58.57751006 C463.77954684 63.39108375 463.77942806 68.20464005 463.77824771 73.01821673 C463.77804338 78.21465835 463.78356561 83.41109443 463.78830528 88.60753345 C463.79660492 98.78315866 463.79935981 108.95877806 463.79991766 119.13440637 C463.80039311 127.40640138 463.80244928 135.67839449 463.80561829 143.95038891 C463.81442266 167.41021568 463.81903795 190.87003789 463.81828781 214.32986633 C463.81822788 216.22619454 463.81822788 216.22619454 463.81816673 218.16083241 C463.81812585 219.42659706 463.81808497 220.69236171 463.81804285 221.99648287 C463.81763635 242.51256677 463.82720749 263.02863232 463.8413051 283.54471091 C463.85567087 304.61752634 463.86257519 325.69033281 463.86171132 346.76315325 C463.86137944 358.59113826 463.86412265 370.41910402 463.87488937 382.24708462 C463.88399696 392.31678308 463.88616745 402.38645358 463.87937995 412.45615438 C463.87611619 417.59177389 463.87605294 422.72733974 463.8847332 427.86295414 C463.89260528 432.56888126 463.8911595 437.27471224 463.88244907 441.98063704 C463.88091566 443.67841729 463.88272421 445.37620474 463.88830914 447.07397649 C463.96653753 472.55248601 463.96653753 472.55248601 456.632864 483.13422108 C456.20102806 483.76070545 455.76919212 484.38718983 455.32427025 485.03265858 C450.15375645 491.74114391 442.69851479 495.8543492 434.632864 498.13422108 C432.05702345 498.3168789 429.59244494 498.40680627 427.01963234 498.39148998 C425.89434994 498.39674909 425.89434994 498.39674909 424.74633455 498.40211445 C422.23034864 498.41142482 419.71459438 498.40650609 417.19859886 498.40164661 C415.37738378 498.40538306 413.5561703 498.40998456 411.73495936 498.41537726 C406.72830761 498.42762343 401.7217226 498.42734488 396.71505928 498.42498851 C391.31613953 498.42458075 385.91724129 498.43561559 380.51833153 498.44510365 C369.93990062 498.4617236 359.361492 498.46721365 348.78304914 498.4683284 C340.18487578 498.46927842 331.58670977 498.47338643 322.98853874 498.47972965 C298.61545297 498.49734494 274.24238483 498.5065681 249.86929265 498.5050687 C247.89794406 498.50494884 247.89794406 498.50494884 245.88677025 498.50482655 C244.57093463 498.50474478 243.25509902 498.50466302 241.89938959 498.50457878 C220.57342104 498.50376585 199.24753912 498.52290467 177.92158857 498.55110328 C156.02848504 498.57982357 134.13541597 498.59364404 112.24229312 498.59191573 C99.94928872 498.59125152 87.65635834 498.59675726 75.3633709 498.61827183 C64.89679801 498.63647236 54.43033272 498.64084021 43.96375087 498.62725298 C38.62379234 498.62071763 33.28404029 498.62062676 27.94410133 498.63795948 C23.05363996 498.65366995 18.16354912 498.65084711 13.27309689 498.63339122 C11.5059482 498.63031687 9.738772 498.63397005 7.97165576 498.64511137 C-5.65184353 498.72530134 -16.24382669 496.98602401 -26.367136 487.13422108 C-34.5014602 477.25936463 -36.48888653 467.08344691 -36.49577045 454.53035831 C-36.49752349 453.80547553 -36.49927653 453.08059274 -36.50108269 452.33374381 C-36.50571758 449.91591876 -36.5032837 447.49815452 -36.50084877 445.08032703 C-36.50271801 443.32480945 -36.50501916 441.56929229 -36.50771409 439.81377578 C-36.51382454 434.99794274 -36.51369939 430.18212708 -36.51251972 425.36629105 C-36.51231552 420.16915018 -36.51783628 414.97201487 -36.52257729 409.77487659 C-36.53088025 399.59577218 -36.53363197 389.41667355 -36.53418966 379.23756602 C-36.53466499 370.96268667 -36.53672056 362.68780923 -36.53989029 354.41293049 C-36.54869587 330.94719556 -36.55330981 307.48146521 -36.55255982 284.01572862 C-36.55251986 282.75094441 -36.5524799 281.48616021 -36.55243874 280.1830492 C-36.55239786 278.91671905 -36.55235697 277.65038889 -36.55231486 276.34568509 C-36.5519084 255.82307109 -36.56147794 235.30047544 -36.5755771 214.77786675 C-36.58994298 193.70056294 -36.59684717 172.62326807 -36.59598333 151.54595923 C-36.59565143 139.71460587 -36.59839525 127.88327175 -36.60916138 116.0519228 C-36.61826914 105.97854031 -36.62043934 95.90518579 -36.61365195 85.83180097 C-36.61038817 80.69416315 -36.610325 75.55657897 -36.6190052 70.41894627 C-36.62687729 65.71112884 -36.6254315 61.0034075 -36.61672107 56.2955924 C-36.61518765 54.59710931 -36.61699626 52.89861903 -36.62258115 51.20014444 C-36.67208091 35.07155124 -36.0794878 21.56712791 -24.72260475 9.25140858 C-17.34823646 2.62303775 -9.70436859 -0.02069356 0 0 Z " fill="#0274B3" transform="translate(36.367136001586914,0.865778923034668)"/>
<path d="M0 0 C19.00224336 16.3584785 25.94732352 38.39387956 28.90234375 62.5234375 C29.15590889 64.35733788 29.15590889 64.35733788 29.41459656 66.22828674 C30.16484569 73.05977956 30.03371765 79.9102603 30.01586914 86.77368164 C30.01558664 88.30208331 30.01574622 89.83048512 30.01631165 91.35888672 C30.01659718 95.4842673 30.01073996 99.60961848 30.00373769 103.73499227 C29.99746347 108.05513308 29.99689714 112.37527465 29.99571228 116.69541931 C29.99261093 124.8655897 29.98441372 133.03574663 29.97436279 141.2059111 C29.96106831 152.25377518 29.95569208 163.30164298 29.94986057 174.34951305 C29.94047298 191.74083128 29.92054608 209.13212109 29.90234375 226.5234375 C5.48234375 226.5234375 -18.93765625 226.5234375 -44.09765625 226.5234375 C-44.1234375 216.4584375 -44.14921875 206.3934375 -44.17578125 196.0234375 C-44.20096481 189.62498087 -44.22714824 183.22655384 -44.2578125 176.828125 C-44.30623779 166.68522384 -44.35072623 156.54242113 -44.36865234 146.39941406 C-44.38173076 139.01001515 -44.40885145 131.62081817 -44.45226932 124.23153305 C-44.47474625 120.32527606 -44.49057531 116.41926683 -44.4895401 112.51293945 C-43.53310681 83.84171433 -43.53310681 83.84171433 -55.09765625 58.5234375 C-63.37606606 51.07127972 -73.59953308 48.94492393 -84.47265625 49.0234375 C-85.38805176 49.02843262 -86.30344727 49.03342773 -87.24658203 49.03857422 C-96.91743065 49.28689599 -105.45848986 51.93826744 -112.578125 58.74609375 C-121.03939685 68.64295413 -125.17358221 81.57582327 -125.25587463 94.48397827 C-125.26566345 95.65337952 -125.27545227 96.82278076 -125.28553772 98.02761841 C-125.29129318 99.29644867 -125.29704865 100.56527893 -125.30297852 101.87255859 C-125.312567 103.23303519 -125.32257764 104.59350886 -125.33297729 105.95397949 C-125.35992736 109.63530623 -125.38099027 113.31664565 -125.40097928 116.99801588 C-125.42290016 120.84974426 -125.4502589 124.70143397 -125.47703552 128.5531311 C-125.52688011 135.84151616 -125.57184937 143.12992277 -125.61505789 150.41834986 C-125.67375062 160.27098794 -125.73999309 170.12357509 -125.80580807 179.97616768 C-125.9092539 195.49188993 -126.00262866 211.00765612 -126.09765625 226.5234375 C-150.51765625 226.5234375 -174.93765625 226.5234375 -200.09765625 226.5234375 C-200.09765625 148.3134375 -200.09765625 70.1034375 -200.09765625 -10.4765625 C-176.66765625 -10.4765625 -153.23765625 -10.4765625 -129.09765625 -10.4765625 C-128.76765625 -0.2465625 -128.43765625 9.9834375 -128.09765625 20.5234375 C-124.63265625 15.5734375 -124.63265625 15.5734375 -121.09765625 10.5234375 C-93.13377943 -22.32092726 -33.84797152 -27.06130384 0 0 Z " fill="#FDFDFE" transform="translate(395.09765625,198.4765625)"/>
<path d="M0 0 C24.42 0 48.84 0 74 0 C74 78.21 74 156.42 74 237 C49.58 237 25.16 237 0 237 C0 158.79 0 80.58 0 0 Z " fill="#FCFDFE" transform="translate(75,188)"/>
<path d="M0 0 C9.84942691 6.84678608 16.42196938 16.1988068 19.69921875 27.6484375 C21.01981754 40.56250353 18.88079042 52.1657988 10.69921875 62.6484375 C10.01859375 63.6178125 9.33796875 64.5871875 8.63671875 65.5859375 C2.2842675 72.99063528 -7.56412087 77.93883298 -17.21728516 78.82421875 C-30.73251834 79.70285012 -40.88782658 77.3607741 -51.79296875 68.89453125 C-60.49398974 61.10156074 -65.27805327 50.07528994 -66.67578125 38.55859375 C-66.73617479 35.86730676 -66.6085383 33.32128638 -66.30078125 30.6484375 C-66.17509766 29.51535156 -66.17509766 29.51535156 -66.046875 28.359375 C-64.00163482 16.17404928 -56.0661912 6.55868609 -46.453125 -0.7578125 C-32.03430751 -9.75679079 -14.19868611 -8.3408241 0 0 Z " fill="#FCFDFE" transform="translate(135.30078125,76.3515625)"/>
</svg>
