<svg xmlns="http://www.w3.org/2000/svg" width="720" height="430" viewBox="0 0 720 430" role="img" aria-labelledby="title desc">
  <title id="title">Strava activity summary</title>
  <desc id="desc">Generated summary card for Strava ride totals and latest ride map.</desc>
  <rect width="720" height="430" rx="24" fill="#ffffff"/>
  <rect x="1" y="1" width="718" height="428" rx="23" fill="none" stroke="#E2E8F0"/>
  <text x="44" y="42" fill="#FC4C02" font-family="-apple-system, BlinkMacSystemFont, Segoe UI, Roboto, Helvetica, Arial, sans-serif" font-size="28" font-weight="700">STRAVA</text>
  <text x="162" y="42" fill="#0F172A" font-family="-apple-system, BlinkMacSystemFont, Segoe UI, Roboto, Helvetica, Arial, sans-serif" font-size="28">Mehdi Belal</text>
  
  
  <rect x="44" y="92" width="204" height="96" rx="16" fill="#F8FAFC" stroke="#E2E8F0"/>
  <text x="64" y="120" fill="#0F172A" font-family="-apple-system, BlinkMacSystemFont, Segoe UI, Roboto, Helvetica, Arial, sans-serif" font-size="20">Longest ride</text>
  <text x="64" y="148" fill="#0F172A" font-family="-apple-system, BlinkMacSystemFont, Segoe UI, Roboto, Helvetica, Arial, sans-serif" font-size="24" font-weight="600">114.3 km</text>
  <text x="64" y="170" fill="#475569" font-family="-apple-system, BlinkMacSystemFont, Segoe UI, Roboto, Helvetica, Arial, sans-serif" font-size="16">Biggest ride distance reported by Strava</text>
  <rect x="258" y="92" width="204" height="96" rx="16" fill="#F8FAFC" stroke="#E2E8F0"/>
  <text x="278" y="120" fill="#0F172A" font-family="-apple-system, BlinkMacSystemFont, Segoe UI, Roboto, Helvetica, Arial, sans-serif" font-size="20">Total rides</text>
  <text x="278" y="148" fill="#0F172A" font-family="-apple-system, BlinkMacSystemFont, Segoe UI, Roboto, Helvetica, Arial, sans-serif" font-size="24" font-weight="600">86</text>
  <text x="278" y="170" fill="#475569" font-family="-apple-system, BlinkMacSystemFont, Segoe UI, Roboto, Helvetica, Arial, sans-serif" font-size="16">All-time rides • 30722 m climbed</text>
  <rect x="472" y="92" width="204" height="96" rx="16" fill="#F8FAFC" stroke="#E2E8F0"/>
  <text x="492" y="120" fill="#0F172A" font-family="-apple-system, BlinkMacSystemFont, Segoe UI, Roboto, Helvetica, Arial, sans-serif" font-size="20">Total km</text>
  <text x="492" y="148" fill="#0F172A" font-family="-apple-system, BlinkMacSystemFont, Segoe UI, Roboto, Helvetica, Arial, sans-serif" font-size="24" font-weight="600">3513.1 km</text>
  <text x="492" y="170" fill="#475569" font-family="-apple-system, BlinkMacSystemFont, Segoe UI, Roboto, Helvetica, Arial, sans-serif" font-size="16">All-time ride distance</text>
  
  <rect x="44" y="218" width="632" height="176" rx="20" fill="#F8FAFC" stroke="#E2E8F0"/>
  <text x="68" y="250" fill="#0F172A" font-family="-apple-system, BlinkMacSystemFont, Segoe UI, Roboto, Helvetica, Arial, sans-serif" font-size="22">Latest ride</text>
  <text x="68" y="286" fill="#0F172A" font-family="-apple-system, BlinkMacSystemFont, Segoe UI, Roboto, Helvetica, Arial, sans-serif" font-size="28" font-weight="600">Lunch Ride</text>
  <text x="68" y="316" fill="#475569" font-family="-apple-system, BlinkMacSystemFont, Segoe UI, Roboto, Helvetica, Arial, sans-serif" font-size="18">28.0 km • Jan 25, 2026</text>
  <rect x="394" y="246" width="250" height="148" rx="16" fill="#FFFFFF" stroke="#E2E8F0"/>
  <path d="M631.28 293.10 L628.85 292.78 L628.06 292.52 L626.30 291.80 L625.69 291.37 L624.77 291.11 L624.39 290.87 L622.80 290.30 L622.33 290.44 L618.98 289.86 L618.72 289.95 L617.68 289.78 L616.34 289.78 L609.83 288.70 L608.59 288.70 L604.80 288.15 L604.19 287.95 L604.08 287.37 L604.19 285.15 L604.89 280.28 L605.00 278.84 L605.18 278.37 L606.62 266.51 L606.54 266.22 L606.65 265.38 L606.39 264.98 L605.75 264.72 L604.65 264.54 L603.12 264.45 L601.93 264.48 L601.07 264.17 L597.71 263.82 L597.28 264.02 L596.78 264.14 L596.35 263.96 L595.45 263.88 L594.93 263.96 L593.02 263.91 L591.55 263.93 L589.35 264.19 L582.78 265.73 L579.42 266.68 L577.37 267.12 L576.76 267.15 L576.53 267.49 L576.30 267.61 L576.04 267.70 L575.46 267.67 L574.76 268.33 L574.33 268.22 L573.58 269.00 L572.74 269.66 L570.48 271.26 L568.14 272.79 L567.01 272.85 L564.75 270.44 L563.27 268.71 L561.77 267.44 L561.36 266.86 L560.09 266.02 L559.66 265.58 L558.67 264.17 L557.66 262.17 L557.17 261.50 L556.76 261.24 L556.47 261.19 L555.20 260.58 L554.33 262.34 L553.20 264.22 L553.09 264.34 L552.54 264.54 L551.53 264.31 L550.28 263.91 L547.56 262.60 L547.13 262.34 L546.92 262.02 L546.17 261.85 L545.07 261.42 L544.61 261.19 L544.15 260.78 L543.94 260.35 L543.54 260.26 L542.99 260.00 L542.79 259.65 L542.53 259.54 L539.31 262.43 L536.36 265.38 L534.37 267.18 L530.03 271.37 L528.00 273.19 L526.87 274.03 L520.33 279.21 L515.01 283.81 L511.59 286.56 L502.42 293.13 L501.38 293.77 L494.66 298.72 L491.91 301.18 L490.58 302.62 L489.05 304.45 L487.49 306.76 L485.23 310.81 L483.81 314.00 L481.93 317.64 L481.53 318.16 L481.27 319.00 L479.96 321.63 L479.18 322.88 L478.75 324.07 L476.38 328.90 L474.49 332.43 L473.74 334.22 L471.31 339.11 L469.89 341.69 L467.90 344.61 L465.67 347.24 L462.89 349.96 L460.00 352.19 L457.39 354.02 L456.90 354.28 L456.15 354.42 L455.57 354.91 L451.26 357.49 L450.42 357.89 L450.04 358.27 L448.31 359.37 L444.20 361.77 L443.56 362.00 L442.81 362.58 L439.68 364.49 L438.35 365.13 L433.14 368.14 L432.25 368.77 L428.72 370.94 L426.29 372.25 L424.72 373.26 L423.54 374.13 L421.68 375.26 L419.80 376.24 L417.00 378.03 L416.50 378.29 L416.13 378.32 L415.23 378.03 L414.91 378.15 L410.89 380.52 L410.31 380.44 L410.05 380.12 L408.89 378.32 L408.63 377.51 L408.52 376.70 L408.58 376.07 L408.26 374.88 L406.95 365.59 L406.46 363.77 L406.43 362.44 L406.20 359.14 L406.46 358.36 L407.42 357.52 L408.17 357.05 L408.81 356.48 L411.04 354.83 L417.60 350.20 L428.74 342.50 L433.17 338.82 L434.79 336.94 L435.02 336.91 L435.52 337.35 L436.15 337.67 L436.38 337.72 L436.67 337.49 L434.91 336.62 L434.68 336.60 L434.45 336.71 L432.33 339.08 L428.34 342.38 L417.08 350.14 L415.98 350.83 L415.20 351.15 L414.30 351.67 L409.27 355.26 L408.52 356.21 L406.64 357.55 L406.09 357.81 L406.20 358.59 L406.00 359.05 L406.03 359.83 L406.43 363.62 L406.58 364.72 L406.78 365.16 L406.84 366.43 L407.94 374.10 L408.37 376.21 L408.37 376.99 L408.58 377.69 L409.56 379.54 L410.31 380.44 L410.77 380.55 L411.27 380.35 L415.06 378.12 L415.20 378.09 L416.24 378.29 L416.62 378.27 L419.14 376.73 L420.01 376.12 L420.50 375.95 L421.13 375.60 L423.56 374.13 L424.98 373.06 L428.86 370.65 L433.35 368.17 L438.24 365.16 L439.08 364.78 L440.38 364.06 L442.69 362.64 L443.44 362.06 L444.40 361.63 L449.84 358.39 L450.65 357.81 L451.40 357.49 L454.90 355.35 L456.06 354.54 L456.99 354.13 L460.89 351.56 L463.24 349.68 L463.70 349.15 L465.84 347.10 L467.00 345.80 L468.10 344.41 L469.89 341.83 L471.14 339.60 L474.15 333.47 L474.64 332.25 L475.07 331.62 L478.31 325.11 L479.27 322.88 L479.91 321.84 L481.15 319.41 L481.50 318.37 L482.22 317.24 L484.59 312.35 L485.43 310.47 L485.92 309.68 L487.14 307.34 L488.12 305.81 L489.40 304.04 L490.47 302.74 L493.68 299.53 L494.87 298.57 L500.62 294.38 L501.26 293.83 L502.22 293.25 L504.85 291.42 L511.77 286.45 L514.54 284.19 L521.03 278.61 L525.66 275.13 L526.78 274.09 L527.83 273.40 L531.21 270.30 L542.58 259.45 L542.82 259.68 L543.28 259.82 L543.57 260.11 L543.97 260.20 L544.09 260.52 L544.41 260.87 L545.13 261.30 L545.91 261.65 L547.07 261.94 L550.60 263.76 L550.77 264.02 L552.65 264.51 L552.77 264.48 L553.38 263.88 L554.51 262.14 L555.35 260.58 L557.26 261.56 L557.60 261.85 L559.48 264.02 L559.95 264.66 L560.47 266.51 L561.45 267.09 L562.06 267.70 L562.78 268.10 L563.77 269.14 L565.47 271.31 L565.79 271.52 L566.69 272.35 L567.50 273.22 L568.11 272.93 L568.63 272.50 L572.97 269.55 L574.39 268.19 L574.65 268.30 L574.99 268.13 L575.34 267.75 L576.18 267.61 L576.61 267.41 L576.87 267.09 L577.25 267.15 L577.77 267.06 L584.75 265.21 L589.20 264.14 L590.36 263.93 L592.53 263.79 L594.50 263.91 L595.68 263.85 L596.35 263.93 L597.04 264.11 L598.23 264.02 L598.52 263.91 L601.10 264.17 L602.08 264.45 L602.89 264.40 L604.89 264.51 L605.99 264.69 L606.36 264.86 L606.65 264.89 L606.80 265.06 L606.62 266.28 L606.65 266.80 L605.18 278.52 L605.41 278.61 L609.08 279.16 L613.45 279.56 L616.23 279.47 L616.87 279.39 L618.08 279.50 L618.83 279.70 L620.60 279.73 L621.21 279.85 L622.19 279.85 L622.51 279.68 L623.49 279.79 L623.81 280.17 L623.72 281.99 L623.32 284.31 L623.55 284.65 L623.55 284.86 L623.38 285.38 L623.12 285.78 L622.57 289.78 L622.62 290.04 L623.23 290.44 L624.48 290.82 L625.08 291.14 L625.63 291.22 L626.70 291.86 L628.90 292.70 L629.77 292.78 L630.55 292.96 L632.00 293.07" fill="none" stroke="#FC4C02" stroke-width="4" stroke-linecap="round" stroke-linejoin="round"/><circle cx="631.28" cy="293.10" r="4" fill="#0F172A"/><circle cx="632.00" cy="293.07" r="4" fill="#FC4C02"/>

  <text x="676" y="406" text-anchor="end" fill="#94A3B8" font-family="-apple-system, BlinkMacSystemFont, Segoe UI, Roboto, Helvetica, Arial, sans-serif" font-size="14">Updated 2026-04-30 04:34 UTC</text>
</svg>
